<?xml version="1.0" encoding="utf-8"?>
<svg xmlns="http://www.w3.org/2000/svg" style="margin: auto; background: rgb(241, 242, 243); display: block; shape-rendering: auto;" width="958" height="146" preserveAspectRatio="xMidYMid">
<style type="text/css">
  text {
    text-anchor: middle; font-size: 96px; opacity: 0;
  }
</style>
<g style="transform-origin:479px 73px;transform:scale(1)">
<g transform="translate(479,73)">
  <g transform="translate(-39,9)"><g class="path" style="transform: scale(0.91); transform-origin: -324.655px -38.7653px; animation: 1s linear -0.641667s infinite normal forwards running breath-6310446d-0511-446f-992b-bad403d9140c;"><path d="M55.41-62.72L47.63-55.78L47.63-55.78Q45.47-58.22 43.03-59.44L43.03-59.44L43.03-59.44Q40.59-60.66 37.78-60.84L37.78-60.84L37.78-70.13L37.78-70.13Q48.28-69.66 55.41-62.72L55.41-62.72" fill="#689cc5" stroke="none" stroke-width="none" transform="translate(-371.25,24.189744805230024)" style="fill: rgb(104, 156, 197);"></path></g><g class="path" style="transform: scale(0.91); transform-origin: -324.655px 17.4847px; animation: 1s linear -0.623333s infinite normal forwards running breath-6310446d-0511-446f-992b-bad403d9140c;"><path d="M37.78 0.47L37.78-8.81L37.78-8.81Q40.59-9.09 43.08-10.31L43.08-10.31L43.08-10.31Q45.56-11.53 47.63-13.88L47.63-13.88L55.41-7.03L55.41-7.03Q51.84-3.56 47.44-1.69L47.44-1.69L47.44-1.69Q43.03 0.19 37.78 0.47L37.78 0.47" fill="#689cc5" stroke="none" stroke-width="none" transform="translate(-371.25,24.189744805230024)" style="fill: rgb(104, 156, 197);"></path></g><g class="path" style="transform: scale(0.91); transform-origin: -350.575px -10.6853px; animation: 1s linear -0.605s infinite normal forwards running breath-6310446d-0511-446f-992b-bad403d9140c;"><path d="M7.41-34.88L7.41-34.88L7.41-34.88Q7.41-43.22 9.42-49.59L9.42-49.59L9.42-49.59Q11.44-55.97 15-60.38L15-60.38L15-60.38Q18.56-64.78 23.39-67.22L23.39-67.22L23.39-67.22Q28.22-69.66 33.94-70.13L33.94-70.13L33.94-60.75L33.94-60.75Q30.84-60.28 28.13-58.64L28.13-58.64L28.13-58.64Q25.41-57 23.34-53.91L23.34-53.91L23.34-53.91Q21.28-50.81 20.11-46.08L20.11-46.08L20.11-46.08Q18.94-41.34 18.84-34.88L18.84-34.88L18.84-34.88Q18.94-28.31 20.11-23.63L20.11-23.63L20.11-23.63Q21.28-18.94 23.34-15.75L23.34-15.75L23.34-15.75Q25.41-12.56 28.17-10.88L28.17-10.88L28.17-10.88Q30.94-9.19 33.94-8.81L33.94-8.81L33.94 0.38L33.94 0.38Q28.22 0 23.39-2.44L23.39-2.44L23.39-2.44Q18.56-4.88 15-9.28L15-9.28L15-9.28Q11.44-13.69 9.42-20.11L9.42-20.11L9.42-20.11Q7.41-26.53 7.41-34.88" fill="#689cc5" stroke="none" stroke-width="none" transform="translate(-371.25,24.189744805230024)" style="fill: rgb(104, 156, 197);"></path></g><g class="path" style="transform: scale(0.91); transform-origin: -294.61px -2.25026px; animation: 1s linear -0.586667s infinite normal forwards running breath-6310446d-0511-446f-992b-bad403d9140c;"><path d="M70.97-52.88L81.09-52.88L82.31-47.44L82.31-18.75L82.31-18.56L82.31 0L70.97 0L70.97-52.88" fill="#689cc5" stroke="none" stroke-width="none" transform="translate(-371.25,24.189744805230024)" style="fill: rgb(104, 156, 197);"></path></g><g class="path" style="transform: scale(0.91); transform-origin: -277.825px -22.9203px; animation: 1s linear -0.568333s infinite normal forwards running breath-6310446d-0511-446f-992b-bad403d9140c;"><path d="M86.16-40.97L86.16-50.53L86.16-50.53Q88.50-51.84 91.78-52.55L91.78-52.55L91.78-52.55Q95.06-53.25 100.69-53.25L100.69-53.25L100.69-41.44L100.69-41.44Q98.06-42.19 94.31-42.28L94.31-42.28L94.31-42.28Q92.25-42.28 90.14-41.95L90.14-41.95L90.14-41.95Q88.03-41.63 86.16-40.97L86.16-40.97" fill="#689cc5" stroke="none" stroke-width="none" transform="translate(-371.25,24.189744805230024)" style="fill: rgb(104, 156, 197);"></path></g><g class="path" style="transform: scale(0.91); transform-origin: -252.84px -2.25026px; animation: 1s linear -0.55s infinite normal forwards running breath-6310446d-0511-446f-992b-bad403d9140c;"><path d="M124.13-52.88L124.13 0L112.69 0L112.69-52.88L124.13-52.88" fill="#689cc5" stroke="none" stroke-width="none" transform="translate(-371.25,24.189744805230024)" style="fill: rgb(104, 156, 197);"></path></g><g class="path" style="transform: scale(0.91); transform-origin: -252.795px -45.6053px; animation: 1s linear -0.531667s infinite normal forwards running breath-6310446d-0511-446f-992b-bad403d9140c;"><path d="M125.16-69.75L125.16-69.75L125.16-69.75Q125.16-66.94 123.19-65.02L123.19-65.02L123.19-65.02Q121.22-63.09 118.41-63.09L118.41-63.09L118.41-63.09Q115.59-63.09 113.67-65.06L113.67-65.06L113.67-65.06Q111.75-67.03 111.75-69.75L111.75-69.75L111.75-69.75Q111.75-72.56 113.72-74.53L113.72-74.53L113.72-74.53Q115.69-76.50 118.41-76.50L118.41-76.50L118.41-76.50Q121.22-76.50 123.19-74.53L123.19-74.53L123.19-74.53Q125.16-72.56 125.16-69.75" fill="#689cc5" stroke="none" stroke-width="none" transform="translate(-371.25,24.189744805230024)" style="fill: rgb(104, 156, 197);"></path></g><g class="path" style="transform: scale(0.91); transform-origin: -224.205px -13.7353px; animation: 1s linear -0.513333s infinite normal forwards running breath-6310446d-0511-446f-992b-bad403d9140c;"><path d="M138.84-37.78L138.84-37.78L138.84-37.78Q138.84-41.34 140.16-44.20L140.16-44.20L140.16-44.20Q141.47-47.06 143.81-49.08L143.81-49.08L143.81-49.08Q146.16-51.09 149.11-52.27L149.11-52.27L149.11-52.27Q152.06-53.44 155.25-53.72L155.25-53.72L155.25-44.34L155.25-44.34Q152.81-43.88 151.45-42.38L151.45-42.38L151.45-42.38Q150.09-40.88 150.09-38.16L150.09-38.16L150.09-38.16Q150.09-35.91 151.55-34.55L151.55-34.55L151.55-34.55Q153-33.19 155.25-32.16L155.25-32.16L155.25-22.13L155.25-22.13Q153.66-22.59 152.02-23.20L152.02-23.20L152.02-23.20Q150.38-23.81 148.78-24.56L148.78-24.56L148.78-24.56Q143.81-27.19 141.33-30.09L141.33-30.09L141.33-30.09Q138.84-33 138.84-37.78" fill="#689cc5" stroke="none" stroke-width="none" transform="translate(-371.25,24.189744805230024)" style="fill: rgb(104, 156, 197);"></path></g><g class="path" style="transform: scale(0.91); transform-origin: -204.8px -23.5753px; animation: 1s linear -0.495s infinite normal forwards running breath-6310446d-0511-446f-992b-bad403d9140c;"><path d="M173.81-49.50L170.16-41.72L170.16-41.72Q167.63-43.03 164.77-43.69L164.77-43.69L164.77-43.69Q161.91-44.34 159.09-44.53L159.09-44.53L159.09-53.81L159.09-53.81Q163.31-53.63 166.88-52.64L166.88-52.64L166.88-52.64Q170.44-51.66 173.81-49.50L173.81-49.50" fill="#689cc5" stroke="none" stroke-width="none" transform="translate(-371.25,24.189744805230024)" style="fill: rgb(104, 156, 197);"></path></g><g class="path" style="transform: scale(0.91); transform-origin: -224.11px 18.5197px; animation: 1s linear -0.476667s infinite normal forwards running breath-6310446d-0511-446f-992b-bad403d9140c;"><path d="M139.03-4.22L143.81-11.81L143.81-11.81Q145.69-10.50 148.27-9.38L148.27-9.38L148.27-9.38Q150.84-8.25 154.78-8.25L154.78-8.25L155.25-8.25L155.25 0.47L155.25 0.47Q152.91 0.47 150.94 0.33L150.94 0.33L150.94 0.33Q148.97 0.19 147.05-0.33L147.05-0.33L147.05-0.33Q145.13-0.84 143.16-1.78L143.16-1.78L143.16-1.78Q141.19-2.72 139.03-4.22L139.03-4.22" fill="#689cc5" stroke="none" stroke-width="none" transform="translate(-371.25,24.189744805230024)" style="fill: rgb(104, 156, 197);"></path></g><g class="path" style="transform: scale(0.91); transform-origin: -203.91px 8.99975px; animation: 1s linear -0.458333s infinite normal forwards running breath-6310446d-0511-446f-992b-bad403d9140c;"><path d="M159.09-20.72L159.09-30.66L159.09-30.66Q161.91-29.72 164.81-28.59L164.81-28.59L164.81-28.59Q167.72-27.47 170.11-25.78L170.11-25.78L170.11-25.78Q172.50-24.09 174.05-21.61L174.05-21.61L174.05-21.61Q175.59-19.13 175.59-15.38L175.59-15.38L175.59-15.38Q175.59-11.72 174.28-9L174.28-9L174.28-9Q172.97-6.28 170.77-4.31L170.77-4.31L170.77-4.31Q168.56-2.34 165.56-1.22L165.56-1.22L165.56-1.22Q162.56-0.09 159.09 0.28L159.09 0.28L159.09-8.63L159.09-8.63Q162.28-9.19 164.02-10.64L164.02-10.64L164.02-10.64Q165.75-12.09 165.75-14.53L165.75-14.53L165.75-14.53Q165.75-16.97 163.83-18.33L163.83-18.33L163.83-18.33Q161.91-19.69 159.09-20.72L159.09-20.72" fill="#689cc5" stroke="none" stroke-width="none" transform="translate(-371.25,24.189744805230024)" style="fill: rgb(104, 156, 197);"></path></g><g class="path" style="transform: scale(0.91); transform-origin: -169.59px -9.51525px; animation: 1s linear -0.44s infinite normal forwards running breath-6310446d-0511-446f-992b-bad403d9140c;"><path d="M205.41-45.19L205.41-16.03L205.41-16.03Q205.41-12.84 206.25-11.06L206.25-11.06L206.25-11.06Q207.09-9.28 208.64-8.34L208.64-8.34L208.64-8.34Q210.19-7.41 212.11-7.17L212.11-7.17L212.11-7.17Q214.03-6.94 216.19-6.94L216.19-6.94L216.19 0L216.19 0Q214.97 0.19 213.75 0.28L213.75 0.28L213.75 0.28Q212.72 0.38 211.27 0.42L211.27 0.42L211.27 0.42Q209.81 0.47 208.41 0.47L208.41 0.47L208.41 0.47Q207 0.47 205.55 0.38L205.55 0.38L205.55 0.38Q204.09 0.28 203.06 0.09L203.06 0.09L203.06 0.09Q199.88-0.47 198.09-2.67L198.09-2.67L198.09-2.67Q196.31-4.88 195.42-7.55L195.42-7.55L195.42-7.55Q194.53-10.22 194.30-12.75L194.30-12.75L194.30-12.75Q194.06-15.28 194.06-16.69L194.06-16.69L194.06-45.19L187.13-45.19L187.13-52.88L194.06-52.88L194.06-67.88L205.41-67.88L205.41-52.88L213.84-52.88L213.84-45.19L205.41-45.19" fill="#689cc5" stroke="none" stroke-width="none" transform="translate(-371.25,24.189744805230024)" style="fill: rgb(104, 156, 197);"></path></g><g class="path" style="transform: scale(0.91); transform-origin: -136.125px -2.25026px; animation: 1s linear -0.421667s infinite normal forwards running breath-6310446d-0511-446f-992b-bad403d9140c;"><path d="M240.84-52.88L240.84 0L229.41 0L229.41-52.88L240.84-52.88" fill="#689cc5" stroke="none" stroke-width="none" transform="translate(-371.25,24.189744805230024)" style="fill: rgb(104, 156, 197);"></path></g><g class="path" style="transform: scale(0.91); transform-origin: -136.075px -45.6053px; animation: 1s linear -0.403333s infinite normal forwards running breath-6310446d-0511-446f-992b-bad403d9140c;"><path d="M241.88-69.75L241.88-69.75L241.88-69.75Q241.88-66.94 239.91-65.02L239.91-65.02L239.91-65.02Q237.94-63.09 235.13-63.09L235.13-63.09L235.13-63.09Q232.31-63.09 230.39-65.06L230.39-65.06L230.39-65.06Q228.47-67.03 228.47-69.75L228.47-69.75L228.47-69.75Q228.47-72.56 230.44-74.53L230.44-74.53L230.44-74.53Q232.41-76.50 235.13-76.50L235.13-76.50L235.13-76.50Q237.94-76.50 239.91-74.53L239.91-74.53L239.91-74.53Q241.88-72.56 241.88-69.75" fill="#689cc5" stroke="none" stroke-width="none" transform="translate(-371.25,24.189744805230024)" style="fill: rgb(104, 156, 197);"></path></g><g class="path" style="transform: scale(0.91); transform-origin: -103.59px 8.29975px; animation: 1s linear -0.385s infinite normal forwards running breath-6310446d-0511-446f-992b-bad403d9140c;"><path d="M265.97-15.94L265.97-15.94L265.97-15.94Q265.97-11.72 267.70-9.66L267.70-9.66L267.70-9.66Q269.44-7.59 272.72-7.22L272.72-7.22L272.72 0.38L272.72 0.38Q272.34 0.47 271.50 0.47L271.50 0.47L271.50 0.47Q268.31 0.47 265.36-0.38L265.36-0.38L265.36-0.38Q262.41-1.22 260.16-3.09L260.16-3.09L260.16-3.09Q257.91-4.97 256.64-8.06L256.64-8.06L256.64-8.06Q255.38-11.16 255.38-15.66L255.38-15.66L255.38-15.66Q255.38-19.97 257.20-23.11L257.20-23.11L257.20-23.11Q259.03-26.25 261.89-28.27L261.89-28.27L261.89-28.27Q264.75-30.28 268.41-31.27L268.41-31.27L268.41-31.27Q272.06-32.25 275.81-32.25L275.81-32.25L279.94-32.25L279.94-25.59L277.88-25.59L277.88-25.59Q276-25.59 273.94-25.22L273.94-25.22L273.94-25.22Q271.88-24.84 270.09-23.81L270.09-23.81L270.09-23.81Q268.31-22.78 267.14-20.86L267.14-20.86L267.14-20.86Q265.97-18.94 265.97-15.94" fill="#689cc5" stroke="none" stroke-width="none" transform="translate(-371.25,24.189744805230024)" style="fill: rgb(104, 156, 197);"></path></g><g class="path" style="transform: scale(0.91); transform-origin: -92.62px -2.39025px; animation: 1s linear -0.366667s infinite normal forwards running breath-6310446d-0511-446f-992b-bad403d9140c;"><path d="M295.13-16.41L295.13-15.66L295.13-15.66Q295.13-14.91 295.22-13.45L295.22-13.45L295.22-13.45Q295.31-12 295.59-10.50L295.59-10.50L295.59-10.50Q295.88-9 296.48-7.78L296.48-7.78L296.48-7.78Q297.09-6.56 298.13-6.19L298.13-6.19L295.13 0.09L295.13 0.09Q293.91 0.09 292.55-0.47L292.55-0.47L292.55-0.47Q291.19-1.03 289.92-2.06L289.92-2.06L289.92-2.06Q288.66-3.09 287.77-4.36L287.77-4.36L287.77-4.36Q286.88-5.63 286.41-7.13L286.41-7.13L286.41-7.13Q285.47-4.78 282.70-2.95L282.70-2.95L282.70-2.95Q279.94-1.13 276.56-0.28L276.56-0.28L276.56-7.41L276.56-7.41Q278.81-7.88 280.64-9.23L280.64-9.23L280.64-9.23Q282.47-10.59 283.78-12.47L283.78-12.47L283.78-32.25L283.78-32.25Q283.78-36.84 283.31-39.56L283.31-39.56L283.31-39.56Q282.84-42.28 281.72-43.55L281.72-43.55L281.72-43.55Q280.59-44.81 278.95-45.14L278.95-45.14L278.95-45.14Q277.31-45.47 275.06-45.47L275.06-45.47L275.06-45.47Q273-45.47 271.17-44.95L271.17-44.95L271.17-44.95Q269.34-44.44 267.80-43.73L267.80-43.73L267.80-43.73Q266.25-43.03 265.08-42.19L265.08-42.19L265.08-42.19Q263.91-41.34 263.34-40.88L263.34-40.88L259.13-47.34L259.13-47.34Q260.06-48.38 261.94-49.45L261.94-49.45L261.94-49.45Q263.81-50.53 266.25-51.38L266.25-51.38L266.25-51.38Q268.69-52.22 271.55-52.73L271.55-52.73L271.55-52.73Q274.41-53.25 277.50-53.25L277.50-53.25L277.50-53.25Q280.31-53.25 282.98-52.69L282.98-52.69L282.98-52.69Q285.66-52.13 287.86-50.81L287.86-50.81L287.86-50.81Q290.06-49.50 291.70-47.30L291.70-47.30L291.70-47.30Q293.34-45.09 294-41.81L294-41.81L294-41.81Q294.66-38.53 294.89-35.20L294.89-35.20L294.89-35.20Q295.13-31.88 295.13-28.59L295.13-28.59L295.13-16.41" fill="#689cc5" stroke="none" stroke-width="none" transform="translate(-371.25,24.189744805230024)" style="fill: rgb(104, 156, 197);"></path></g><g class="path" style="transform: scale(0.91); transform-origin: -52.545px -2.25026px; animation: 1s linear -0.348333s infinite normal forwards running breath-6310446d-0511-446f-992b-bad403d9140c;"><path d="M313.03-52.88L323.16-52.88L324.38-47.53L324.38 0L313.03 0L313.03-52.88" fill="#689cc5" stroke="none" stroke-width="none" transform="translate(-371.25,24.189744805230024)" style="fill: rgb(104, 156, 197);"></path></g><g class="path" style="transform: scale(0.91); transform-origin: -28.735px -2.53025px; animation: 1s linear -0.33s infinite normal forwards running breath-6310446d-0511-446f-992b-bad403d9140c;"><path d="M352.41-47.06L352.41-47.06L352.41-47.06Q354-45.47 354.89-43.36L354.89-43.36L354.89-43.36Q355.78-41.25 356.20-38.95L356.20-38.95L356.20-38.95Q356.63-36.66 356.72-34.31L356.72-34.31L356.72-34.31Q356.81-31.97 356.81-29.72L356.81-29.72L356.81-1.88L356.81 0L345.38 0L345.38-28.78L345.38-28.78Q345.38-31.97 345.09-34.88L345.09-34.88L345.09-34.88Q344.81-37.78 343.78-40.03L343.78-40.03L343.78-40.03Q342.75-42.28 340.97-43.55L340.97-43.55L340.97-43.55Q339.19-44.81 336-44.81L336-44.81L336-44.81Q334.69-44.81 332.48-44.39L332.48-44.39L332.48-44.39Q330.28-43.97 328.22-43.03L328.22-43.03L328.22-50.25L328.22-50.25Q330.75-51.56 333.70-52.50L333.70-52.50L333.70-52.50Q336.66-53.44 339.47-53.44L339.47-53.44L339.47-53.44Q343.69-53.44 346.59-51.70L346.59-51.70L346.59-51.70Q349.50-49.97 352.41-47.06" fill="#689cc5" stroke="none" stroke-width="none" transform="translate(-371.25,24.189744805230024)" style="fill: rgb(104, 156, 197);"></path></g><g class="path" style="transform: scale(0.91); transform-origin: 65.44px -38.7653px; animation: 1s linear -0.311667s infinite normal forwards running breath-6310446d-0511-446f-992b-bad403d9140c;"><path d="M445.50-62.72L437.72-55.78L437.72-55.78Q435.56-58.22 433.13-59.44L433.13-59.44L433.13-59.44Q430.69-60.66 427.88-60.84L427.88-60.84L427.88-70.13L427.88-70.13Q438.38-69.66 445.50-62.72L445.50-62.72" fill="#689cc5" stroke="none" stroke-width="none" transform="translate(-371.25,24.189744805230024)" style="fill: rgb(104, 156, 197);"></path></g><g class="path" style="transform: scale(0.91); transform-origin: 65.44px 17.4847px; animation: 1s linear -0.293333s infinite normal forwards running breath-6310446d-0511-446f-992b-bad403d9140c;"><path d="M427.88 0.47L427.88-8.81L427.88-8.81Q430.69-9.09 433.17-10.31L433.17-10.31L433.17-10.31Q435.66-11.53 437.72-13.88L437.72-13.88L445.50-7.03L445.50-7.03Q441.94-3.56 437.53-1.69L437.53-1.69L437.53-1.69Q433.13 0.19 427.88 0.47L427.88 0.47" fill="#689cc5" stroke="none" stroke-width="none" transform="translate(-371.25,24.189744805230024)" style="fill: rgb(104, 156, 197);"></path></g><g class="path" style="transform: scale(0.91); transform-origin: 39.515px -10.6853px; animation: 1s linear -0.275s infinite normal forwards running breath-6310446d-0511-446f-992b-bad403d9140c;"><path d="M397.50-34.88L397.50-34.88L397.50-34.88Q397.50-43.22 399.52-49.59L399.52-49.59L399.52-49.59Q401.53-55.97 405.09-60.38L405.09-60.38L405.09-60.38Q408.66-64.78 413.48-67.22L413.48-67.22L413.48-67.22Q418.31-69.66 424.03-70.13L424.03-70.13L424.03-60.75L424.03-60.75Q420.94-60.28 418.22-58.64L418.22-58.64L418.22-58.64Q415.50-57 413.44-53.91L413.44-53.91L413.44-53.91Q411.38-50.81 410.20-46.08L410.20-46.08L410.20-46.08Q409.03-41.34 408.94-34.88L408.94-34.88L408.94-34.88Q409.03-28.31 410.20-23.63L410.20-23.63L410.20-23.63Q411.38-18.94 413.44-15.75L413.44-15.75L413.44-15.75Q415.50-12.56 418.27-10.88L418.27-10.88L418.27-10.88Q421.03-9.19 424.03-8.81L424.03-8.81L424.03 0.38L424.03 0.38Q418.31 0 413.48-2.44L413.48-2.44L413.48-2.44Q408.66-4.88 405.09-9.28L405.09-9.28L405.09-9.28Q401.53-13.69 399.52-20.11L399.52-20.11L399.52-20.11Q397.50-26.53 397.50-34.88" fill="#689cc5" stroke="none" stroke-width="none" transform="translate(-371.25,24.189744805230024)" style="fill: rgb(104, 156, 197);"></path></g><g class="path" style="transform: scale(0.91); transform-origin: 103.69px -2.01525px; animation: 1s linear -0.256667s infinite normal forwards running breath-6310446d-0511-446f-992b-bad403d9140c;"><path d="M472.13-52.88L472.13-24.09L472.13-24.09Q472.13-20.81 472.41-17.95L472.41-17.95L472.41-17.95Q472.69-15.09 473.63-12.94L473.63-12.94L473.63-12.94Q474.56-10.78 476.44-9.47L476.44-9.47L476.44-9.47Q478.31-8.16 481.41-8.16L481.41-8.16L481.41-8.16Q482.63-8.16 484.88-8.53L484.88-8.53L484.88-8.53Q487.13-8.91 489.19-9.75L489.19-9.75L489.19-2.81L489.19-2.81Q486.75-1.50 483.89-0.52L483.89-0.52L483.89-0.52Q481.03 0.47 478.22 0.47L478.22 0.47L478.22 0.47Q475.97 0.47 474.19 0.05L474.19 0.05L474.19 0.05Q472.41-0.38 470.86-1.27L470.86-1.27L470.86-1.27Q469.31-2.16 467.91-3.28L467.91-3.28L467.91-3.28Q466.50-4.41 465.09-5.81L465.09-5.81L465.09-5.81Q463.50-7.41 462.56-9.52L462.56-9.52L462.56-9.52Q461.63-11.63 461.20-13.92L461.20-13.92L461.20-13.92Q460.78-16.22 460.73-18.56L460.73-18.56L460.73-18.56Q460.69-20.91 460.69-23.16L460.69-23.16L460.69-52.88L472.13-52.88" fill="#689cc5" stroke="none" stroke-width="none" transform="translate(-371.25,24.189744805230024)" style="fill: rgb(104, 156, 197);"></path></g><g class="path" style="transform: scale(0.91); transform-origin: 127.5px -2.25026px; animation: 1s linear -0.238333s infinite normal forwards running breath-6310446d-0511-446f-992b-bad403d9140c;"><path d="M493.03-52.88L504.47-52.88L504.47 0L494.25 0L493.03-5.44L493.03-52.88" fill="#689cc5" stroke="none" stroke-width="none" transform="translate(-371.25,24.189744805230024)" style="fill: rgb(104, 156, 197);"></path></g><g class="path" style="transform: scale(0.91); transform-origin: 156.14px -13.7353px; animation: 1s linear -0.22s infinite normal forwards running breath-6310446d-0511-446f-992b-bad403d9140c;"><path d="M519.19-37.78L519.19-37.78L519.19-37.78Q519.19-41.34 520.50-44.20L520.50-44.20L520.50-44.20Q521.81-47.06 524.16-49.08L524.16-49.08L524.16-49.08Q526.50-51.09 529.45-52.27L529.45-52.27L529.45-52.27Q532.41-53.44 535.59-53.72L535.59-53.72L535.59-44.34L535.59-44.34Q533.16-43.88 531.80-42.38L531.80-42.38L531.80-42.38Q530.44-40.88 530.44-38.16L530.44-38.16L530.44-38.16Q530.44-35.91 531.89-34.55L531.89-34.55L531.89-34.55Q533.34-33.19 535.59-32.16L535.59-32.16L535.59-22.13L535.59-22.13Q534-22.59 532.36-23.20L532.36-23.20L532.36-23.20Q530.72-23.81 529.13-24.56L529.13-24.56L529.13-24.56Q524.16-27.19 521.67-30.09L521.67-30.09L521.67-30.09Q519.19-33 519.19-37.78" fill="#689cc5" stroke="none" stroke-width="none" transform="translate(-371.25,24.189744805230024)" style="fill: rgb(104, 156, 197);"></path></g><g class="path" style="transform: scale(0.91); transform-origin: 175.55px -23.5753px; animation: 1s linear -0.201667s infinite normal forwards running breath-6310446d-0511-446f-992b-bad403d9140c;"><path d="M554.16-49.50L550.50-41.72L550.50-41.72Q547.97-43.03 545.11-43.69L545.11-43.69L545.11-43.69Q542.25-44.34 539.44-44.53L539.44-44.53L539.44-53.81L539.44-53.81Q543.66-53.63 547.22-52.64L547.22-52.64L547.22-52.64Q550.78-51.66 554.16-49.50L554.16-49.50" fill="#689cc5" stroke="none" stroke-width="none" transform="translate(-371.25,24.189744805230024)" style="fill: rgb(104, 156, 197);"></path></g><g class="path" style="transform: scale(0.91); transform-origin: 156.235px 18.5197px; animation: 1s linear -0.183333s infinite normal forwards running breath-6310446d-0511-446f-992b-bad403d9140c;"><path d="M519.38-4.22L524.16-11.81L524.16-11.81Q526.03-10.50 528.61-9.38L528.61-9.38L528.61-9.38Q531.19-8.25 535.13-8.25L535.13-8.25L535.59-8.25L535.59 0.47L535.59 0.47Q533.25 0.47 531.28 0.33L531.28 0.33L531.28 0.33Q529.31 0.19 527.39-0.33L527.39-0.33L527.39-0.33Q525.47-0.84 523.50-1.78L523.50-1.78L523.50-1.78Q521.53-2.72 519.38-4.22L519.38-4.22" fill="#689cc5" stroke="none" stroke-width="none" transform="translate(-371.25,24.189744805230024)" style="fill: rgb(104, 156, 197);"></path></g><g class="path" style="transform: scale(0.91); transform-origin: 176.44px 8.99975px; animation: 1s linear -0.165s infinite normal forwards running breath-6310446d-0511-446f-992b-bad403d9140c;"><path d="M539.44-20.72L539.44-30.66L539.44-30.66Q542.25-29.72 545.16-28.59L545.16-28.59L545.16-28.59Q548.06-27.47 550.45-25.78L550.45-25.78L550.45-25.78Q552.84-24.09 554.39-21.61L554.39-21.61L554.39-21.61Q555.94-19.13 555.94-15.38L555.94-15.38L555.94-15.38Q555.94-11.72 554.63-9L554.63-9L554.63-9Q553.31-6.28 551.11-4.31L551.11-4.31L551.11-4.31Q548.91-2.34 545.91-1.22L545.91-1.22L545.91-1.22Q542.91-0.09 539.44 0.28L539.44 0.28L539.44-8.63L539.44-8.63Q542.63-9.19 544.36-10.64L544.36-10.64L544.36-10.64Q546.09-12.09 546.09-14.53L546.09-14.53L546.09-14.53Q546.09-16.97 544.17-18.33L544.17-18.33L544.17-18.33Q542.25-19.69 539.44-20.72L539.44-20.72" fill="#689cc5" stroke="none" stroke-width="none" transform="translate(-371.25,24.189744805230024)" style="fill: rgb(104, 156, 197);"></path></g><g class="path" style="transform: scale(0.91); transform-origin: 210.75px -9.51525px; animation: 1s linear -0.146667s infinite normal forwards running breath-6310446d-0511-446f-992b-bad403d9140c;"><path d="M585.75-45.19L585.75-16.03L585.75-16.03Q585.75-12.84 586.59-11.06L586.59-11.06L586.59-11.06Q587.44-9.28 588.98-8.34L588.98-8.34L588.98-8.34Q590.53-7.41 592.45-7.17L592.45-7.17L592.45-7.17Q594.38-6.94 596.53-6.94L596.53-6.94L596.53 0L596.53 0Q595.31 0.19 594.09 0.28L594.09 0.28L594.09 0.28Q593.06 0.38 591.61 0.42L591.61 0.42L591.61 0.42Q590.16 0.47 588.75 0.47L588.75 0.47L588.75 0.47Q587.34 0.47 585.89 0.38L585.89 0.38L585.89 0.38Q584.44 0.28 583.41 0.09L583.41 0.09L583.41 0.09Q580.22-0.47 578.44-2.67L578.44-2.67L578.44-2.67Q576.66-4.88 575.77-7.55L575.77-7.55L575.77-7.55Q574.88-10.22 574.64-12.75L574.64-12.75L574.64-12.75Q574.41-15.28 574.41-16.69L574.41-16.69L574.41-45.19L567.47-45.19L567.47-52.88L574.41-52.88L574.41-67.88L585.75-67.88L585.75-52.88L594.19-52.88L594.19-45.19L585.75-45.19" fill="#689cc5" stroke="none" stroke-width="none" transform="translate(-371.25,24.189744805230024)" style="fill: rgb(104, 156, 197);"></path></g><g class="path" style="transform: scale(0.91); transform-origin: 274.69px -2.20025px; animation: 1s linear -0.128333s infinite normal forwards running breath-6310446d-0511-446f-992b-bad403d9140c;"><path d="M634.69-44.34L634.69-53.16L634.69-53.16Q639.84-52.88 644.06-50.67L644.06-50.67L644.06-50.67Q648.28-48.47 651.14-44.86L651.14-44.86L651.14-44.86Q654-41.25 655.59-36.47L655.59-36.47L655.59-36.47Q657.19-31.69 657.19-26.25L657.19-26.25L657.19-26.25Q657.19-20.81 655.55-16.08L655.55-16.08L655.55-16.08Q653.91-11.34 651-7.83L651-7.83L651-7.83Q648.09-4.31 643.88-2.16L643.88-2.16L643.88-2.16Q639.66 0 634.69 0.38L634.69 0.38L634.69-8.63L634.69-8.63Q639.38-9.66 642.33-14.53L642.33-14.53L642.33-14.53Q645.28-19.41 645.28-26.25L645.28-26.25L645.28-26.25Q645.28-29.72 644.58-32.77L644.58-32.77L644.58-32.77Q643.88-35.81 642.47-38.25L642.47-38.25L642.47-38.25Q641.06-40.69 639.09-42.28L639.09-42.28L639.09-42.28Q637.13-43.88 634.69-44.34L634.69-44.34" fill="#689cc5" stroke="none" stroke-width="none" transform="translate(-371.25,24.189744805230024)" style="fill: rgb(104, 156, 197);"></path></g><g class="path" style="transform: scale(0.91); transform-origin: 248.435px -2.15026px; animation: 1s linear -0.11s infinite normal forwards running breath-6310446d-0511-446f-992b-bad403d9140c;"><path d="M608.53-26.44L608.53-26.44L608.53-26.44Q608.53-31.88 610.13-36.56L610.13-36.56L610.13-36.56Q611.72-41.25 614.67-44.77L614.67-44.77L614.67-44.77Q617.63-48.28 621.75-50.44L621.75-50.44L621.75-50.44Q625.88-52.59 630.84-53.06L630.84-53.06L630.84-44.34L630.84-44.34Q626.16-43.31 623.34-38.44L623.34-38.44L623.34-38.44Q620.53-33.56 620.53-26.72L620.53-26.72L620.53-26.72Q620.53-23.25 621.23-20.16L621.23-20.16L621.23-20.16Q621.94-17.06 623.25-14.63L623.25-14.63L623.25-14.63Q624.56-12.19 626.48-10.59L626.48-10.59L626.48-10.59Q628.41-9 630.84-8.63L630.84-8.63L630.84 0.38L630.84 0.38Q625.69 0 621.56-2.20L621.56-2.20L621.56-2.20Q617.44-4.41 614.53-7.97L614.53-7.97L614.53-7.97Q611.63-11.53 610.08-16.31L610.08-16.31L610.08-16.31Q608.53-21.09 608.53-26.44" fill="#689cc5" stroke="none" stroke-width="none" transform="translate(-371.25,24.189744805230024)" style="fill: rgb(104, 156, 197);"></path></g><g class="path" style="transform: scale(0.91); transform-origin: 339px -12.2303px; animation: 1s linear -0.0916667s infinite normal forwards running breath-6310446d-0511-446f-992b-bad403d9140c;"><path d="M704.53-72.84L715.97-72.84L715.97 0L705.19 0L704.53-6.28L704.53-72.84" fill="#689cc5" stroke="none" stroke-width="none" transform="translate(-371.25,24.189744805230024)" style="fill: rgb(104, 156, 197);"></path></g><g class="path" style="transform: scale(0.91); transform-origin: 313.36px -2.24525px; animation: 1s linear -0.0733333s infinite normal forwards running breath-6310446d-0511-446f-992b-bad403d9140c;"><path d="M668.53-27.19L668.53-27.19L668.53-27.19Q668.53-34.50 670.55-39.47L670.55-39.47L670.55-39.47Q672.56-44.44 675.75-47.53L675.75-47.53L675.75-47.53Q678.94-50.63 682.83-51.98L682.83-51.98L682.83-51.98Q686.72-53.34 690.47-53.34L690.47-53.34L690.47-53.34Q693.38-53.34 696-52.69L696-52.69L696-52.69Q698.63-52.03 700.69-50.81L700.69-50.81L700.69-40.88L700.69-40.88Q699.09-42.56 697.13-43.59L697.13-43.59L697.13-43.59Q695.16-44.63 692.72-44.63L692.72-44.63L692.72-44.63Q689.81-44.63 687.56-43.17L687.56-43.17L687.56-43.17Q685.31-41.72 683.77-39.19L683.77-39.19L683.77-39.19Q682.22-36.66 681.38-33.38L681.38-33.38L681.38-33.38Q680.53-30.09 680.53-26.34L680.53-26.34L680.53-26.34Q680.53-22.59 681.47-19.36L681.47-19.36L681.47-19.36Q682.41-16.13 684-13.69L684-13.69L684-13.69Q685.59-11.25 687.89-9.84L687.89-9.84L687.89-9.84Q690.19-8.44 692.91-8.44L692.91-8.44L692.91-8.44Q697.50-8.44 700.69-12.09L700.69-12.09L700.69-2.34L700.69-2.34Q698.44-1.13 695.48-0.33L695.48-0.33L695.48-0.33Q692.53 0.47 689.25 0.47L689.25 0.47L689.25 0.47Q685.50 0.47 681.89-0.89L681.89-0.89L681.89-0.89Q678.28-2.25 675.47-5.34L675.47-5.34L675.47-5.34Q671.91-9.38 670.22-15.33L670.22-15.33L670.22-15.33Q668.53-21.28 668.53-27.19" fill="#689cc5" stroke="none" stroke-width="none" transform="translate(-371.25,24.189744805230024)" style="fill: rgb(104, 156, 197);"></path></g><g class="path" style="transform: scale(0.91); transform-origin: 366.375px -2.25026px; animation: 1s linear -0.055s infinite normal forwards running breath-6310446d-0511-446f-992b-bad403d9140c;"><path d="M743.34-52.88L743.34 0L731.91 0L731.91-52.88L743.34-52.88" fill="#689cc5" stroke="none" stroke-width="none" transform="translate(-371.25,24.189744805230024)" style="fill: rgb(104, 156, 197);"></path></g><g class="path" style="transform: scale(0.91); transform-origin: 366.425px -45.6053px; animation: 1s linear -0.0366667s infinite normal forwards running breath-6310446d-0511-446f-992b-bad403d9140c;"><path d="M744.38-69.75L744.38-69.75L744.38-69.75Q744.38-66.94 742.41-65.02L742.41-65.02L742.41-65.02Q740.44-63.09 737.63-63.09L737.63-63.09L737.63-63.09Q734.81-63.09 732.89-65.06L732.89-65.06L732.89-65.06Q730.97-67.03 730.97-69.75L730.97-69.75L730.97-69.75Q730.97-72.56 732.94-74.53L732.94-74.53L732.94-74.53Q734.91-76.50 737.63-76.50L737.63-76.50L737.63-76.50Q740.44-76.50 742.41-74.53L742.41-74.53L742.41-74.53Q744.38-72.56 744.38-69.75" fill="#689cc5" stroke="none" stroke-width="none" transform="translate(-371.25,24.189744805230024)" style="fill: rgb(104, 156, 197);"></path></g><g class="path" style="transform: scale(0.91); transform-origin: 424.13px -2.20025px; animation: 1s linear -0.0183333s infinite normal forwards running breath-6310446d-0511-446f-992b-bad403d9140c;"><path d="M784.13-44.34L784.13-53.16L784.13-53.16Q789.28-52.88 793.50-50.67L793.50-50.67L793.50-50.67Q797.72-48.47 800.58-44.86L800.58-44.86L800.58-44.86Q803.44-41.25 805.03-36.47L805.03-36.47L805.03-36.47Q806.63-31.69 806.63-26.25L806.63-26.25L806.63-26.25Q806.63-20.81 804.98-16.08L804.98-16.08L804.98-16.08Q803.34-11.34 800.44-7.83L800.44-7.83L800.44-7.83Q797.53-4.31 793.31-2.16L793.31-2.16L793.31-2.16Q789.09 0 784.13 0.38L784.13 0.38L784.13-8.63L784.13-8.63Q788.81-9.66 791.77-14.53L791.77-14.53L791.77-14.53Q794.72-19.41 794.72-26.25L794.72-26.25L794.72-26.25Q794.72-29.72 794.02-32.77L794.02-32.77L794.02-32.77Q793.31-35.81 791.91-38.25L791.91-38.25L791.91-38.25Q790.50-40.69 788.53-42.28L788.53-42.28L788.53-42.28Q786.56-43.88 784.13-44.34L784.13-44.34" fill="#689cc5" stroke="none" stroke-width="none" transform="translate(-371.25,24.189744805230024)" style="fill: rgb(104, 156, 197);"></path></g><g class="path" style="transform: scale(0.91); transform-origin: 397.875px -2.15026px; animation: 1s linear 0s infinite normal forwards running breath-6310446d-0511-446f-992b-bad403d9140c;"><path d="M757.97-26.44L757.97-26.44L757.97-26.44Q757.97-31.88 759.56-36.56L759.56-36.56L759.56-36.56Q761.16-41.25 764.11-44.77L764.11-44.77L764.11-44.77Q767.06-48.28 771.19-50.44L771.19-50.44L771.19-50.44Q775.31-52.59 780.28-53.06L780.28-53.06L780.28-44.34L780.28-44.34Q775.59-43.31 772.78-38.44L772.78-38.44L772.78-38.44Q769.97-33.56 769.97-26.72L769.97-26.72L769.97-26.72Q769.97-23.25 770.67-20.16L770.67-20.16L770.67-20.16Q771.38-17.06 772.69-14.63L772.69-14.63L772.69-14.63Q774-12.19 775.92-10.59L775.92-10.59L775.92-10.59Q777.84-9 780.28-8.63L780.28-8.63L780.28 0.38L780.28 0.38Q775.13 0 771-2.20L771-2.20L771-2.20Q766.88-4.41 763.97-7.97L763.97-7.97L763.97-7.97Q761.06-11.53 759.52-16.31L759.52-16.31L759.52-16.31Q757.97-21.09 757.97-26.44" fill="#689cc5" stroke="none" stroke-width="none" transform="translate(-371.25,24.189744805230024)" style="fill: rgb(104, 156, 197);"></path></g></g>
</g>
</g>
<style id="breath-6310446d-0511-446f-992b-bad403d9140c" data-anikit="">@keyframes breath-6310446d-0511-446f-992b-bad403d9140c
{
  0% {
    animation-timing-function: cubic-bezier(0.9647,0.2413,-0.0705,0.7911);
    transform: scale(0.9099999999999999);
  }
  51% {
    animation-timing-function: cubic-bezier(0.9226,0.2631,-0.0308,0.7628);
    transform: scale(1.02994);
  }
  100% {
    transform: scale(0.9099999999999999);
  }
}</style></svg>